<svg width="18" height="18" fill="none" xmlns="http://www.w3.org/2000/svg"><path d="M11.284 14.275l1.405 1.406v2.314H.005V2.997L1.41 4.402V16.59h7.028v-5.16l1.405 1.405v3.755h1.44v-2.315zm-4.252-4.239a.685.685 0 10-1.37 0 .685.685 0 001.37 0zM18 17.006l-.994.994L0 .994.994 0l1.172 1.173L9.843.033v1.413h2.846v6.219h2.61l-1.495-1.519 1.002-.986 3.16 3.212-3.168 3.168-.994-.994L15.28 9.07h-2.59v2.626l5.31 5.31zM9.843 2.851V8.85l1.44 1.441v-7.44h-1.44zm-6.44-.442l5.035 5.035v-5.78l-5.035.745z" fill="#000"/></svg>