<svg width="120" height="66" fill="none" xmlns="http://www.w3.org/2000/svg"><g filter="url(#filter0_d)" fill="#000"><path d="M80.95 27.402a29.37 29.37 0 00-.481-4.334c-.854-4.653-2.33-9.106-4.373-13.37-.638-1.331-1.34-2.627-2.198-3.833a12.35 12.35 0 00-.927-1.172 5.842 5.842 0 00-.92-.818c-.71-.503-1.49-.547-2.29-.233a4.903 4.903 0 00-1.329.807 10.225 10.225 0 00-1.79 1.88c-3.625 5.007-7.108 10.11-10.296 15.411-1.252 2.083-2.599 4.104-4.124 6-1.172 1.457-2.436 2.825-3.914 3.982-1.186.928-2.46 1.697-3.912 2.145-1.263.389-2.544.516-3.855.32-1.159-.174-2.066-.74-2.719-1.715-.379-.566-.618-1.192-.782-1.847-.345-1.38-.409-2.784-.32-4.198.248-3.947 1.218-7.742 2.465-11.473.984-2.945 2.171-5.806 3.708-8.512.612-1.077 1.288-2.11 2.074-3.07.428-.522.898-1 1.45-1.393 1.607-1.146 3.31-1.294 5.103-.484.798.36 1.494.876 2.14 1.461a15.41 15.41 0 011.995 2.226 27.837 27.837 0 012.553 4.15c.078.154.156.31.218.471.25.653-.002 1.321-.597 1.594-.611.28-1.255.061-1.61-.558-.108-.188-.193-.388-.293-.58-.89-1.72-1.9-3.362-3.223-4.79-.367-.395-.766-.77-1.19-1.104a5.533 5.533 0 00-1.105-.674c-.904-.418-1.787-.337-2.564.292a8.392 8.392 0 00-1.142 1.15c-.628.75-1.14 1.583-1.623 2.432-1.336 2.343-2.39 4.812-3.293 7.349-.866 2.432-1.578 4.91-2.069 7.446-.35 1.812-.6 3.636-.572 5.489.011.718.075 1.432.259 2.125.098.373.255.737.435 1.08.213.404.569.62 1.036.698.987.164 1.943.055 2.884-.254 1.235-.405 2.304-1.097 3.298-1.916 1.313-1.081 2.44-2.342 3.489-3.672 1.332-1.689 2.524-3.473 3.63-5.316 2.79-4.652 5.813-9.15 8.951-13.573.528-.742 1.052-1.487 1.598-2.216.81-1.085 1.756-2.034 2.89-2.786a6.216 6.216 0 012.008-.892c1.245-.297 2.41-.099 3.51.53a6.472 6.472 0 011.604 1.313c.933 1.037 1.692 2.198 2.384 3.403 1.32 2.301 2.362 4.73 3.273 7.217 1.03 2.814 1.854 5.686 2.411 8.631.36 1.899.603 3.813.559 5.752a11.829 11.829 0 01-.375 2.764c-.15.569-.358 1.115-.673 1.614-.677 1.076-1.642 1.684-2.91 1.853-1.758.234-3.409-.104-4.988-.86-1.424-.681-2.652-1.64-3.789-2.722-1.705-1.622-3.178-3.444-4.51-5.374-1.48-2.14-2.894-4.325-4.334-6.492a35.505 35.505 0 01-.671-1.038c-.19-.306-.258-.634-.147-.994.14-.457.442-.744.898-.85.458-.108.865.019 1.174.378.169.197.306.42.45.637 1.07 1.632 2.133 3.269 3.21 4.896 1.16 1.756 2.387 3.465 3.752 5.069.972 1.143 2.008 2.22 3.202 3.136.953.73 1.976 1.332 3.15 1.64.785.205 1.577.26 2.384.127.493-.082.833-.334 1.073-.754a4.179 4.179 0 00.513-1.6c.076-.662.119-1.332.178-2.001zM11.084 52.831c.093-.28.159-.463.213-.648.56-1.868 1.116-3.737 1.676-5.605.068-.229.13-.462.23-.676a1.786 1.786 0 013.058-.315c.204.274.27.588.326.908.095.534.18 1.069.268 1.603.413 2.501.828 5.003 1.24 7.505.027.17.06.345.054.516-.023.67-.466 1.162-1.132 1.203-.911.056-1.305-.34-1.434-1.078-.105-.598-.182-1.2-.269-1.801-.229-1.588-.454-3.176-.686-4.763-.014-.094-.075-.181-.153-.363-.128.427-.231.754-.326 1.085l-1.588 5.563c-.018.063-.046.123-.06.185-.21.902-.745 1.161-1.414 1.182-.767.023-1.206-.347-1.459-1.21-.28-.957-.547-1.918-.822-2.876-.34-1.187-.681-2.374-1.025-3.56-.027-.094-.008-.226-.208-.248l-.084.476c-.03.17-.061.341-.087.513-.267 1.844-.532 3.69-.8 5.534-.018.13-.03.26-.062.384a1.311 1.311 0 01-1.948.816 1.11 1.11 0 01-.582-.889c-.02-.213-.01-.435.025-.646.25-1.54.508-3.08.765-4.618.254-1.518.518-3.033.757-4.553.102-.65.408-1.14.998-1.428.888-.435 1.988-.014 2.4.911.096.217.159.45.227.678.565 1.889 1.126 3.779 1.692 5.668.047.156.116.305.21.547zm102.327-.347v-.648c0-1.757-.001-3.513.001-5.27 0-.237-.004-.48.034-.713.094-.585.571-.967 1.196-.985.646-.018 1.134.306 1.28.877.053.208.074.429.074.644.005 3.144.004 6.288.002 9.432 0 .151-.02.303-.035.454-.084.815-1.004 1.3-1.775.919-.321-.16-.558-.4-.77-.68-1.031-1.37-2.069-2.731-3.103-4.096-.564-.743-1.125-1.487-1.691-2.228-.116-.153-.244-.297-.36-.438-.205.072-.141.225-.141.338-.005 1.757-.004 3.513-.004 5.27 0 .26.009.521-.008.78-.046.704-.515 1.159-1.216 1.194-.662.033-1.184-.357-1.32-1.007a2.82 2.82 0 01-.046-.581c-.002-3.101-.004-6.202.002-9.303 0-.236.019-.48.082-.705.194-.694.92-1.044 1.599-.793.381.14.653.404.892.726 1.008 1.358 2.026 2.71 3.04 4.062.637.85 1.274 1.701 1.914 2.55.072.096.163.178.245.267.035-.023.071-.045.108-.066zM40.48 51.105c.006 1.522-.389 2.91-1.33 4.126-1.239 1.6-2.898 2.266-4.887 2.195-3.503-.125-5.338-3.013-5.573-5.358-.112-1.117-.07-2.213.298-3.272.64-1.846 1.831-3.217 3.738-3.769 3.996-1.157 6.852 1.39 7.57 4.403.055.231.101.466.125.703.033.322.04.648.058.972zm-5.927 3.933c1.29.026 2.202-.577 2.772-1.741.28-.574.416-1.185.453-1.814.068-1.15-.139-2.24-.84-3.194-.373-.506-.852-.874-1.46-1.021-1.396-.338-2.833-.04-3.616 1.532-.761 1.528-.747 3.094 0 4.625.535 1.092 1.449 1.625 2.69 1.613zM94.787 51.1c-.03 1.504-.414 2.876-1.326 4.08-1.204 1.59-2.834 2.291-4.8 2.25-.85-.019-1.678-.175-2.446-.569-1.552-.796-2.548-2.059-3.031-3.715-.423-1.45-.412-2.919.075-4.35.622-1.826 1.801-3.188 3.675-3.75 3.983-1.197 6.906 1.311 7.627 4.385.127.545.153 1.113.226 1.67zm-9.19-.018c0 .797.145 1.54.43 2.145.57 1.22 1.51 1.841 2.877 1.814 1.168-.023 2.022-.53 2.588-1.546.346-.619.508-1.288.555-1.983.076-1.152-.13-2.24-.822-3.2-.367-.508-.84-.88-1.448-1.035-1.347-.346-2.802-.08-3.638 1.493-.384.722-.544 1.498-.543 2.312zm-32.172-3.724c-.316-.005-.551-.01-.787-.012-.411-.004-.825.017-1.235-.015-.61-.045-.996-.504-1.007-1.147-.01-.627.383-1.118.966-1.194.15-.02.303-.018.455-.018h5.854c.13 0 .261 0 .39.014.616.068 1.017.565.997 1.228-.02.642-.409 1.07-1.032 1.121-.216.018-.434.01-.65.01h-1.2c-.2.19-.14.396-.141.581-.005 1.67-.003 3.34-.003 5.01 0 .932 0 1.864-.002 2.796 0 .174.003.35-.025.519-.114.685-.641 1.108-1.329 1.08-.697-.028-1.174-.482-1.23-1.183-.017-.194-.01-.39-.01-.585v-7.416c.001-.233-.006-.469-.01-.79zm16.031 3.692v-4.489c0-.173-.007-.348.01-.52.07-.735.565-1.178 1.3-1.174.73.004 1.212.455 1.278 1.199.01.13.008.26.008.39v9.304c0 .173.003.35-.025.52-.107.646-.62 1.062-1.285 1.055-.67-.006-1.166-.424-1.262-1.08-.028-.191-.022-.39-.022-.584-.002-1.54-.001-3.08-.002-4.621z"/><path d="M80.95 27.402a29.37 29.37 0 00-.481-4.334c-.854-4.653-2.33-9.106-4.373-13.37-.638-1.331-1.34-2.627-2.198-3.833a12.35 12.35 0 00-.927-1.172 5.842 5.842 0 00-.92-.818c-.71-.503-1.49-.547-2.29-.233a4.903 4.903 0 00-1.329.807 10.225 10.225 0 00-1.79 1.88c-3.625 5.007-7.108 10.11-10.296 15.411-1.252 2.083-2.599 4.104-4.124 6-1.172 1.457-2.436 2.825-3.914 3.982-1.186.928-2.46 1.697-3.912 2.145-1.263.389-2.544.516-3.855.32-1.159-.174-2.066-.74-2.719-1.715-.379-.566-.618-1.192-.782-1.847-.345-1.38-.409-2.784-.32-4.198.248-3.947 1.218-7.742 2.465-11.473.984-2.945 2.171-5.806 3.708-8.512.612-1.077 1.288-2.11 2.074-3.07.428-.522.898-1 1.45-1.393 1.607-1.146 3.31-1.294 5.103-.484.798.36 1.494.876 2.14 1.461a15.41 15.41 0 011.995 2.226 27.837 27.837 0 012.553 4.15c.078.154.156.31.218.471.25.653-.002 1.321-.597 1.594-.611.28-1.255.061-1.61-.558-.108-.188-.193-.388-.293-.58-.89-1.72-1.9-3.362-3.223-4.79-.367-.395-.766-.77-1.19-1.104a5.533 5.533 0 00-1.105-.674c-.904-.418-1.787-.337-2.564.292a8.392 8.392 0 00-1.142 1.15c-.628.75-1.14 1.583-1.623 2.432-1.336 2.343-2.39 4.812-3.293 7.349-.866 2.432-1.578 4.91-2.069 7.446-.35 1.812-.6 3.636-.572 5.489.011.718.075 1.432.259 2.125.098.373.255.737.435 1.08.213.404.569.62 1.036.698.987.164 1.943.055 2.884-.254 1.235-.405 2.304-1.097 3.298-1.916 1.313-1.081 2.44-2.342 3.489-3.672 1.332-1.689 2.524-3.473 3.63-5.316 2.79-4.652 5.813-9.15 8.951-13.573.528-.742 1.052-1.487 1.598-2.216.81-1.085 1.756-2.034 2.89-2.786a6.216 6.216 0 012.008-.892c1.245-.297 2.41-.099 3.51.53a6.472 6.472 0 011.604 1.313c.933 1.037 1.692 2.198 2.384 3.403 1.32 2.301 2.362 4.73 3.273 7.217 1.03 2.814 1.854 5.686 2.411 8.631.36 1.899.603 3.813.559 5.752a11.829 11.829 0 01-.375 2.764c-.15.569-.358 1.115-.673 1.614-.677 1.076-1.642 1.684-2.91 1.853-1.758.234-3.409-.104-4.988-.86-1.424-.681-2.652-1.64-3.789-2.722-1.705-1.622-3.178-3.444-4.51-5.374-1.48-2.14-2.894-4.325-4.334-6.492a35.505 35.505 0 01-.671-1.038c-.19-.306-.258-.634-.147-.994.14-.457.442-.744.898-.85.458-.108.865.019 1.174.378.169.197.306.42.45.637 1.07 1.632 2.133 3.269 3.21 4.896 1.16 1.756 2.387 3.465 3.752 5.069.972 1.143 2.008 2.22 3.202 3.136.953.73 1.976 1.332 3.15 1.64.785.205 1.577.26 2.384.127.493-.082.833-.334 1.073-.754a4.179 4.179 0 00.513-1.6c.076-.662.119-1.332.178-2.001zM11.084 52.831c.093-.28.159-.463.213-.648.56-1.868 1.116-3.737 1.676-5.605.068-.229.13-.462.23-.676a1.786 1.786 0 013.058-.315c.204.274.27.588.326.908.095.534.18 1.069.268 1.603.413 2.501.828 5.003 1.24 7.505.027.17.06.345.054.516-.023.67-.466 1.162-1.132 1.203-.911.056-1.305-.34-1.434-1.078-.105-.598-.182-1.2-.269-1.801-.229-1.588-.454-3.176-.686-4.763-.014-.094-.075-.181-.153-.363-.128.427-.231.754-.326 1.085l-1.588 5.563c-.018.063-.046.123-.06.185-.21.902-.745 1.161-1.414 1.182-.767.023-1.206-.347-1.459-1.21-.28-.957-.547-1.918-.822-2.876-.34-1.187-.681-2.374-1.025-3.56-.027-.094-.008-.226-.208-.248l-.084.476c-.03.17-.061.341-.087.513-.267 1.844-.532 3.69-.8 5.534-.018.13-.03.26-.062.384a1.311 1.311 0 01-1.948.816 1.11 1.11 0 01-.582-.889c-.02-.213-.01-.435.025-.646.25-1.54.508-3.08.765-4.618.254-1.518.518-3.033.757-4.553.102-.65.408-1.14.998-1.428.888-.435 1.988-.014 2.4.911.096.217.159.45.227.678.565 1.889 1.126 3.779 1.692 5.668.047.156.116.305.21.547zm102.327-.347v-.648c0-1.757-.001-3.513.001-5.27 0-.237-.004-.48.034-.713.094-.585.571-.967 1.196-.985.646-.018 1.134.306 1.28.877.053.208.074.429.074.644.005 3.144.004 6.288.002 9.432 0 .151-.02.303-.035.454-.084.815-1.004 1.3-1.775.919-.321-.16-.558-.4-.77-.68-1.031-1.37-2.069-2.731-3.103-4.096-.564-.743-1.125-1.487-1.691-2.228-.116-.153-.244-.297-.36-.438-.205.072-.141.225-.141.338-.005 1.757-.004 3.513-.004 5.27 0 .26.009.521-.008.78-.046.704-.515 1.159-1.216 1.194-.662.033-1.184-.357-1.32-1.007a2.82 2.82 0 01-.046-.581c-.002-3.101-.004-6.202.002-9.303 0-.236.019-.48.082-.705.194-.694.92-1.044 1.599-.793.381.14.653.404.892.726 1.008 1.358 2.026 2.71 3.04 4.062.637.85 1.274 1.701 1.914 2.55.072.096.163.178.245.267.035-.023.071-.045.108-.066zM40.48 51.105c.006 1.522-.389 2.91-1.33 4.126-1.239 1.6-2.898 2.266-4.887 2.195-3.503-.125-5.338-3.013-5.573-5.358-.112-1.117-.07-2.213.298-3.272.64-1.846 1.831-3.217 3.738-3.769 3.996-1.157 6.852 1.39 7.57 4.403.055.231.101.466.125.703.033.322.04.648.058.972zm-5.927 3.933c1.29.026 2.202-.577 2.772-1.741.28-.574.416-1.185.453-1.814.068-1.15-.139-2.24-.84-3.194-.373-.506-.852-.874-1.46-1.021-1.396-.338-2.833-.04-3.616 1.532-.761 1.528-.747 3.094 0 4.625.535 1.092 1.449 1.625 2.69 1.613zM94.787 51.1c-.03 1.504-.414 2.876-1.326 4.08-1.204 1.59-2.834 2.291-4.8 2.25-.85-.019-1.678-.175-2.446-.569-1.552-.796-2.548-2.059-3.031-3.715-.423-1.45-.412-2.919.075-4.35.622-1.826 1.801-3.188 3.675-3.75 3.983-1.197 6.906 1.311 7.627 4.385.127.545.153 1.113.226 1.67zm-9.19-.018c0 .797.145 1.54.43 2.145.57 1.22 1.51 1.841 2.877 1.814 1.168-.023 2.022-.53 2.588-1.546.346-.619.508-1.288.555-1.983.076-1.152-.13-2.24-.822-3.2-.367-.508-.84-.88-1.448-1.035-1.347-.346-2.802-.08-3.638 1.493-.384.722-.544 1.498-.543 2.312zm-32.172-3.724c-.316-.005-.551-.01-.787-.012-.411-.004-.825.017-1.235-.015-.61-.045-.996-.504-1.007-1.147-.01-.627.383-1.118.966-1.194.15-.02.303-.018.455-.018h5.854c.13 0 .261 0 .39.014.616.068 1.017.565.997 1.228-.02.642-.409 1.07-1.032 1.121-.216.018-.434.01-.65.01h-1.2c-.2.19-.14.396-.141.581-.005 1.67-.003 3.34-.003 5.01 0 .932 0 1.864-.002 2.796 0 .174.003.35-.025.519-.114.685-.641 1.108-1.329 1.08-.697-.028-1.174-.482-1.23-1.183-.017-.194-.01-.39-.01-.585v-7.416c.001-.233-.006-.469-.01-.79zm16.031 3.692v-4.489c0-.173-.007-.348.01-.52.07-.735.565-1.178 1.3-1.174.73.004 1.212.455 1.278 1.199.01.13.008.26.008.39v9.304c0 .173.003.35-.025.52-.107.646-.62 1.062-1.285 1.055-.67-.006-1.166-.424-1.262-1.08-.028-.191-.022-.39-.022-.584-.002-1.54-.001-3.08-.002-4.621z"/></g><defs><filter id="filter0_d" x="0" y=".984" width="120" height="64.448" filterUnits="userSpaceOnUse" color-interpolation-filters="sRGB"><feFlood flood-opacity="0" result="BackgroundImageFix"/><feColorMatrix in="SourceAlpha" values="0 0 0 0 0 0 0 0 0 0 0 0 0 0 0 0 0 0 127 0"/><feOffset dy="4"/><feGaussianBlur stdDeviation="2"/><feColorMatrix values="0 0 0 0 0 0 0 0 0 0 0 0 0 0 0 0 0 0 0.1 0"/><feBlend in2="BackgroundImageFix" result="effect1_dropShadow"/><feBlend in="SourceGraphic" in2="effect1_dropShadow" result="shape"/></filter></defs></svg>