<svg width="18" height="18" fill="none" xmlns="http://www.w3.org/2000/svg"><path d="M14.555 5.23a.352.352 0 00.352-.352V1.055C14.907.473 14.434 0 13.852 0H1.055C.474 0 0 .473 0 1.055v15.89C0 17.527.474 18 1.055 18h12.797c.582 0 1.055-.473 1.055-1.055v-2.59a.352.352 0 10-.703 0v2.59a.352.352 0 01-.352.352H1.055a.352.352 0 01-.351-.352V1.055c0-.194.157-.352.351-.352h12.797c.194 0 .352.158.352.352v3.823a.35.35 0 00.351.351z" fill="#000"/><path d="M7.454 1.898a3.238 3.238 0 00-3.235 3.235 3.226 3.226 0 001.053 2.386 3.222 3.222 0 002.182.848 3.222 3.222 0 002.219-.883 3.225 3.225 0 001.015-2.351 3.238 3.238 0 00-3.234-3.235zm0 5.766a2.518 2.518 0 01-1.53-.516c.31-.548.886-.89 1.53-.89.643 0 1.22.342 1.529.89a2.518 2.518 0 01-1.53.516zM6.89 4.992v-.228a.563.563 0 011.125 0v.228a.563.563 0 01-1.125 0zm2.6 1.641a2.439 2.439 0 00-1.036-.868c.165-.214.264-.482.264-.773v-.228c0-.698-.568-1.266-1.265-1.266-.698 0-1.266.568-1.266 1.266v.228c0 .291.099.56.264.773a2.439 2.439 0 00-1.035.868 2.52 2.52 0 01-.495-1.5 2.534 2.534 0 012.532-2.531 2.534 2.534 0 012.53 2.53c0 .562-.183 1.081-.493 1.501zm-.138 8.765H7.454a.352.352 0 000 .704h1.898a.352.352 0 000-.704zm0-1.968H4.36a.352.352 0 000 .703h4.992a.352.352 0 000-.703zm0-1.97H4.36a.352.352 0 000 .704h4.992a.352.352 0 000-.703zM3.106 9.595a.354.354 0 00-.497 0 .354.354 0 000 .497.355.355 0 00.497 0 .354.354 0 000-.497zm0 1.969a.355.355 0 00-.249-.103.354.354 0 00-.249.6.355.355 0 00.25.103.354.354 0 00.249-.6zm0 1.969a.355.355 0 00-.6.248.354.354 0 00.351.352.354.354 0 00.352-.352.354.354 0 00-.103-.248zm6.246-4.041H4.36a.352.352 0 000 .703h4.992a.352.352 0 000-.703zm7.91-4.91a1.467 1.467 0 00-1.12-.148c-.382.102-.7.346-.897.688l-4.425 7.663a.353.353 0 00-.045.137l-.31 2.789a.352.352 0 00.557.322l2.26-1.664a.35.35 0 00.096-.108L17.802 6.6a1.478 1.478 0 00-.54-2.017zm-6.01 10.408l.163-1.456 1.017.587-1.18.87zm1.693-1.385l-1.34-.773 3.55-6.15 1.34.774-3.55 6.15zm4.248-7.358l-.346.6-1.34-.773.347-.6a.768.768 0 01.47-.36.768.768 0 01.586.077c.179.103.307.27.36.47a.765.765 0 01-.077.586z" fill="#000"/></svg>