<svg width="18" height="18" fill="none" xmlns="http://www.w3.org/2000/svg"><path d="M4.308 9.788a.802.802 0 000 1.602.802.802 0 000-1.602zm0 1.073a.273.273 0 110-.546.273.273 0 010 .546zm7.249 4.021a.264.264 0 00-.251-.182h-1.57l-.484-1.493A.267.267 0 009 13.024a.267.267 0 00-.25.183l-.486 1.492h-1.57a.264.264 0 00-.154.478l1.27.923-.486 1.492a.266.266 0 00.088.29.267.267 0 00.319.006L9 16.965l1.269.923c.1.072.239.065.33-.017a.266.266 0 00.076-.279L10.19 16.1l1.27-.923a.264.264 0 00.096-.295zm-1.831.903a.264.264 0 00-.096.296l.293.901-.767-.557a.266.266 0 00-.31 0l-.768.557.293-.901a.264.264 0 00-.096-.296l-.767-.557h.948a.264.264 0 00.251-.183L9 14.144l.293.901a.264.264 0 00.252.183h.948l-.767.557zm8.261-.903a.264.264 0 00-.252-.182h-1.569l-.485-1.493a.267.267 0 00-.251-.183.267.267 0 00-.251.183l-.485 1.492h-1.57a.264.264 0 00-.155.478l1.27.923-.485 1.492a.266.266 0 00.088.29.267.267 0 00.318.006l1.27-.923 1.27.923a.265.265 0 00.33-.017.266.266 0 00.076-.279l-.485-1.492 1.27-.923a.264.264 0 00.096-.295zm-1.832.903a.264.264 0 00-.096.296l.293.901-.767-.557a.264.264 0 00-.31 0l-.767.557.293-.901a.264.264 0 00-.096-.296l-.767-.557h.948a.264.264 0 00.251-.183l.293-.901.293.901a.264.264 0 00.251.183h.948l-.767.557zm-11.029-.903a.264.264 0 00-.25-.182h-1.57l-.485-1.493a.264.264 0 00-.503 0l-.485 1.492H.264a.264.264 0 00-.155.478l1.27.923-.485 1.492a.264.264 0 00.406.296l1.27-.923 1.27.923a.265.265 0 00.33-.017.266.266 0 00.076-.279L3.76 16.1l1.27-.923a.264.264 0 00.095-.295zm-1.831.903a.264.264 0 00-.096.296l.293.901-.767-.557a.266.266 0 00-.31 0l-.768.557.293-.901a.264.264 0 00-.096-.296l-.767-.557h.948a.264.264 0 00.252-.183l.293-.902.293.902a.264.264 0 00.25.183h.95l-.768.557z" fill="#000"/><path d="M15.861 6.648a1.195 1.195 0 00-.749-2.13h-4.25c.133-.288.285-.727.372-1.337.203-1.417-.103-2.17-.396-2.55a1.41 1.41 0 00-.96-.565.563.563 0 00-.625.54c-.05.507-.23 1.901-.49 2.42C8.099 4.357 6.51 5.15 6.02 5.37a.976.976 0 00-.638-.237H3.234c-.54 0-.98.44-.98.98v5.37c0 .54.44.98.98.98h2.148c.29 0 .55-.126.73-.326a2.5 2.5 0 001.35.372h6.904a1.199 1.199 0 00.898-1.987 1.199 1.199 0 00.373-1.866 1.199 1.199 0 00.224-2.009zM5.382 11.935H3.234a.452.452 0 01-.451-.451v-5.37c0-.249.202-.452.451-.452h2.148a.45.45 0 01.322.136v5.892c0 .031.006.062.017.091a.45.45 0 01-.339.154zm8.62-5.023h1.11a.67.67 0 010 1.338h-1.11a.264.264 0 100 .528h.737a.67.67 0 010 1.338h-.94a.264.264 0 000 .528h.567a.67.67 0 010 1.338H7.462c-.546 0-.915-.183-1.116-.32a.98.98 0 00.016-.179V6.114a.976.976 0 00-.045-.296c.619-.284 2.203-1.124 2.92-2.556.357-.716.536-2.54.543-2.617L9.781.62a.03.03 0 01.01-.023.026.026 0 01.022-.007c.166.02.405.1.606.362.23.3.468.92.292 2.155-.15 1.047-.504 1.505-.506 1.508a.267.267 0 00.204.431h4.703a.67.67 0 010 1.338h-1.11a.264.264 0 100 .528z" fill="#000"/></svg>