<svg width="14" height="18" fill="none" xmlns="http://www.w3.org/2000/svg"><path d="M1.645 3.027V7.49a6.615 6.615 0 00-1.251 3.878C.394 15.025 3.371 18 7.028 18c3.657 0 6.637-2.975 6.637-6.632a6.614 6.614 0 00-1.25-3.878V3.027A3.038 3.038 0 009.385 0H4.677a3.038 3.038 0 00-3.032 3.027zM7.03 17.213a5.852 5.852 0 01-5.845-5.845A5.852 5.852 0 017.03 5.523a5.852 5.852 0 015.846 5.845 5.851 5.851 0 01-5.846 5.845zm3.145-11.676a6.58 6.58 0 00-6.29 0v-2.51a.78.78 0 01.792-.786h4.707a.78.78 0 01.791.786v2.51zM4.677.787h4.707a2.25 2.25 0 012.246 2.24v3.56a5.43 5.43 0 00-.669-.548V3.027a1.567 1.567 0 00-1.577-1.573H4.677a1.567 1.567 0 00-1.578 1.573v3.012c-.237.164-.46.347-.668.547v-3.56A2.25 2.25 0 014.677.787z" fill="#000"/></svg>