<svg width="20" height="20" viewBox="0 0 20 20" fill="none" xmlns="http://www.w3.org/2000/svg">
<g clip-path="url(#clip0)">
<path d="M10 -3.05176e-05C4.4861 -3.05176e-05 0 4.48607 0 9.99997C0 15.5139 4.4861 20 10 20C15.5139 20 20 15.5139 20 9.99997C20 4.48607 15.5139 -3.05176e-05 10 -3.05176e-05ZM10 18.75C5.17517 18.75 1.25001 14.8248 1.25001 9.99997C1.25001 5.17514 5.17517 1.24998 10 1.24998C14.8248 1.24998 18.75 5.17514 18.75 9.99997C18.75 14.8248 14.8248 18.75 10 18.75Z" fill="black"/>
<path d="M10.625 3.74997H9.375V10.2587L13.3081 14.1918L14.1919 13.3081L10.625 9.74116V3.74997Z" fill="black"/>
</g>
<defs>
<clipPath id="clip0">
<rect width="20" height="20" fill="white"/>
</clipPath>
</defs>
</svg>
