<svg width="18" height="18" viewBox="0 0 18 18" fill="none" xmlns="http://www.w3.org/2000/svg">
<path d="M11.2839 14.2755L12.6894 15.681V17.995H0.00498942V2.9966L1.41046 4.40207V16.5895H8.43781V11.4294L9.84328 12.8349V16.5895H11.2839V14.2755ZM7.03234 10.0365C7.03234 9.65811 6.7256 9.35137 6.34717 9.35137C5.96875 9.35137 5.66201 9.65811 5.66201 10.0365C5.66201 10.415 5.96875 10.7217 6.34717 10.7217C6.7256 10.7217 7.03234 10.415 7.03234 10.0365ZM18 17.0062L17.0062 18L0 0.993808L0.993808 0L2.16643 1.17262L9.84328 0.0322555V1.4456H12.6894V7.6648H15.2985L13.8038 6.14598L14.8055 5.16015L17.9659 8.37151L14.7976 11.5398L13.8038 10.546L15.2795 9.07027H12.6894V11.6956L18 17.0062ZM9.84328 2.85107V8.84947L11.2839 10.2901V9.07027V7.6648V2.85107H9.84328ZM3.40292 2.40912L8.43781 7.444V1.66429L3.40292 2.40912Z" fill="black"/>
</svg>
