<svg width="120" height="66" viewBox="0 0 120 66" fill="none" xmlns="http://www.w3.org/2000/svg">
<g filter="url(#filter0_d)">
<path d="M80.9509 27.4019C80.9024 25.9405 80.7314 24.4974 80.469 23.0679C79.6151 18.415 78.1386 13.9625 76.0961 9.69772C75.4584 8.36675 74.7556 7.07076 73.8985 5.86541C73.6098 5.45992 73.3069 5.05999 72.9714 4.69266C72.6955 4.39133 72.3838 4.11145 72.0507 3.87531C71.3407 3.37203 70.5607 3.3275 69.7608 3.64156C69.2734 3.83317 68.8354 4.11543 68.4323 4.44937C67.7604 5.00434 67.1538 5.62291 66.6425 6.32895C63.0169 11.3364 59.5337 16.4392 56.3462 21.7401C55.0939 23.8232 53.747 25.8435 52.2221 27.7398C51.0501 29.1972 49.7859 30.5647 48.3079 31.7215C47.1216 32.6502 45.8471 33.4191 44.3961 33.8667C43.1335 34.2555 41.8518 34.3827 40.5407 34.1863C39.3823 34.013 38.4751 33.4469 37.8223 32.4721C37.4431 31.906 37.2037 31.2803 37.0399 30.6251C36.6949 29.2449 36.6313 27.8415 36.7203 26.4271C36.9676 22.4795 37.9376 18.6846 39.1851 14.954C40.1694 12.009 41.3565 9.14831 42.8934 6.44185C43.5048 5.3653 44.1806 4.3317 44.9669 3.37283C45.3947 2.85046 45.8646 2.37181 46.4164 1.97904C48.024 0.832529 49.7279 0.684642 51.52 1.49483C52.3183 1.8558 53.014 2.37102 53.6604 2.9562C54.4022 3.62804 55.0574 4.3802 55.6553 5.18164C56.6308 6.48797 57.4752 7.87538 58.2083 9.33118C58.2862 9.48622 58.3641 9.64206 58.4261 9.80346C58.6766 10.4562 58.4237 11.1241 57.829 11.3968C57.2176 11.6775 56.5744 11.458 56.219 10.8387C56.1108 10.651 56.0258 10.4507 55.9256 10.2583C55.0351 8.53849 54.0261 6.89664 52.7031 5.46946C52.3358 5.07351 51.9374 4.69982 51.5137 4.36509C51.1773 4.09874 50.7981 3.87134 50.4077 3.69086C49.5045 3.27264 48.6211 3.35374 47.8436 3.98265C47.4253 4.32056 47.0477 4.71969 46.7018 5.13314C46.0737 5.8829 45.5625 6.71615 45.079 7.56451C43.7433 9.90762 42.6882 12.3771 41.7858 14.9135C40.92 17.3464 40.2076 19.8231 39.717 22.3602C39.3672 24.1722 39.1175 25.9961 39.1453 27.8487C39.1565 28.5667 39.2201 29.2806 39.4037 29.9739C39.5023 30.3468 39.659 30.711 39.8394 31.0537C40.0517 31.4584 40.4079 31.6746 40.8746 31.7518C41.8621 31.9155 42.8178 31.8066 43.7592 31.4981C44.994 31.0934 46.0634 30.4009 47.0572 29.582C48.3699 28.5007 49.4965 27.2404 50.546 25.9095C51.8778 24.2215 53.0704 22.4366 54.1756 20.5943C56.9655 15.9423 59.9893 11.4437 63.1275 7.02146C63.6546 6.27885 64.1793 5.53386 64.7248 4.80477C65.5358 3.72027 66.4811 2.77094 67.6141 2.01879C68.2327 1.60774 68.8966 1.30083 69.6233 1.1275C70.8676 0.830142 72.0332 1.02812 73.1336 1.65624C73.741 2.00289 74.2698 2.44973 74.7373 2.96972C75.6699 4.0073 76.4292 5.16812 77.1209 6.37347C78.4416 8.67445 79.4831 11.1026 80.3935 13.5897C81.4231 16.4035 82.2484 19.2761 82.805 22.2211C83.1644 24.1197 83.4077 26.0335 83.3639 27.9727C83.3425 28.9085 83.2288 29.8316 82.9894 30.7372C82.8392 31.3057 82.6309 31.8519 82.316 32.3513C81.6386 33.427 80.6742 34.0345 79.406 34.2038C77.6481 34.4384 75.9975 34.0996 74.4176 33.3435C72.9944 32.6629 71.766 31.7041 70.6291 30.6219C68.9244 29 67.4511 27.1776 66.1186 25.248C64.6397 23.1076 63.2252 20.9227 61.7846 18.7561C61.5564 18.4134 61.3298 18.0692 61.1135 17.7185C60.9243 17.4116 60.8559 17.084 60.9672 16.7239C61.1079 16.2667 61.4093 15.9805 61.8649 15.8731C62.3228 15.7658 62.7299 15.893 63.0392 16.2524C63.2078 16.4488 63.3453 16.6722 63.4884 16.8893C64.5594 18.5208 65.6216 20.1578 66.6982 21.7854C67.8598 23.5409 69.0858 25.2496 70.451 26.854C71.4226 27.9966 72.4586 29.0747 73.6528 29.9899C74.6061 30.7205 75.6294 31.3224 76.8037 31.6301C77.5884 31.8352 78.3796 31.8893 79.1874 31.7565C79.6803 31.6746 80.0198 31.4234 80.2599 31.0028C80.5438 30.5051 80.7076 29.966 80.7735 29.4031C80.8491 28.7408 80.892 28.0705 80.9509 27.4019Z" fill="black"/>
<path d="M11.0843 52.8311C11.1773 52.5504 11.2425 52.3683 11.2973 52.1831C11.8563 50.3146 12.4128 48.4462 12.9726 46.5777C13.041 46.3495 13.1022 46.1158 13.2024 45.9019C13.786 44.6632 15.4493 44.4978 16.2611 45.587C16.4646 45.8606 16.5306 46.1754 16.587 46.495C16.6817 47.0285 16.7667 47.5636 16.855 48.0979C17.2684 50.5993 17.6827 53.1014 18.0945 55.6035C18.1223 55.7737 18.1541 55.9478 18.1486 56.1187C18.1263 56.7882 17.6827 57.2811 17.0172 57.3225C16.106 57.3781 15.7124 56.9822 15.5828 56.2436C15.4779 55.6457 15.4008 55.0438 15.3141 54.4427C15.0851 52.8549 14.8601 51.2671 14.6279 49.6801C14.6144 49.5863 14.5532 49.4989 14.4753 49.3168C14.3465 49.7437 14.2439 50.0713 14.1493 50.4021C13.619 52.2562 13.0903 54.1103 12.5607 55.9653C12.5432 56.0281 12.5154 56.0877 12.5011 56.1505C12.2904 57.0522 11.7561 57.3114 11.0874 57.332C10.3202 57.3551 9.8813 56.9854 9.62846 56.1211C9.34859 55.1646 9.08144 54.2042 8.80634 53.2461C8.46605 52.059 8.12496 50.872 7.78148 49.6857C7.75445 49.5919 7.77274 49.4599 7.57317 49.4384C7.54534 49.5943 7.51672 49.7541 7.48889 49.9139C7.45947 50.0848 7.42767 50.255 7.40223 50.4267C7.13508 52.2713 6.86952 54.1167 6.60237 55.9613C6.58408 56.0901 6.57137 56.2205 6.53956 56.3453C6.31853 57.2088 5.37158 57.6055 4.5924 57.1611C4.24892 56.9647 4.04856 56.6618 4.0104 56.2722C3.98973 56.0591 4.00086 55.8373 4.03505 55.6258C4.2847 54.0857 4.54311 52.5464 4.79992 51.0079C5.05355 49.4901 5.31752 47.9747 5.55684 46.4545C5.6594 45.8041 5.96472 45.3151 6.55467 45.0265C7.44278 44.5924 8.54317 45.013 8.95503 45.9385C9.05123 46.1547 9.11404 46.3877 9.18162 46.6159C9.74693 48.505 10.3083 50.3949 10.8744 52.284C10.9213 52.4399 10.9904 52.5894 11.0843 52.8311Z" fill="black"/>
<path d="M113.411 52.4844C113.411 52.2681 113.411 52.0519 113.411 51.8356C113.411 50.0793 113.41 48.3229 113.412 46.5666C113.412 46.3289 113.408 46.0864 113.446 45.8534C113.54 45.2682 114.017 44.8858 114.642 44.8683C115.288 44.85 115.776 45.1744 115.922 45.7453C115.975 45.9528 115.996 46.1738 115.996 46.3885C116.001 49.5331 116 52.6768 115.998 55.8214C115.998 55.9724 115.978 56.1235 115.963 56.2746C115.879 57.0895 114.959 57.5753 114.188 57.1937C113.867 57.0347 113.63 56.7946 113.418 56.5131C112.387 55.1448 111.349 53.7828 110.315 52.4176C109.751 51.675 109.19 50.9308 108.624 50.1898C108.508 50.0371 108.38 49.8932 108.264 49.7525C108.059 49.8241 108.123 49.9767 108.123 50.0904C108.118 51.8468 108.119 53.6031 108.119 55.3594C108.119 55.6194 108.128 55.881 108.111 56.1402C108.065 56.8439 107.596 57.2986 106.895 57.3336C106.233 57.367 105.711 56.9766 105.575 56.3271C105.535 56.1386 105.529 55.9398 105.529 55.7458C105.527 52.645 105.525 49.5442 105.531 46.4434C105.531 46.2072 105.55 45.9631 105.613 45.7381C105.807 45.044 106.533 44.6942 107.212 44.9446C107.593 45.0854 107.865 45.3493 108.104 45.6713C109.112 47.0293 110.13 48.3802 111.144 49.7334C111.781 50.5834 112.418 51.4341 113.058 52.2825C113.13 52.3787 113.221 52.4606 113.303 52.5496C113.338 52.5266 113.374 52.5051 113.411 52.4844Z" fill="black"/>
<path d="M40.4793 51.1049C40.4864 52.6267 40.0913 54.0157 39.1507 55.2306C37.9112 56.8311 36.2518 57.4966 34.2625 57.4258C30.7602 57.301 28.9251 54.4133 28.6898 52.0678C28.5777 50.9507 28.6206 49.8551 28.9879 48.796C29.628 46.9498 30.819 45.5791 32.7256 45.0273C36.7225 43.8705 39.5784 46.4163 40.2964 49.4297C40.3513 49.6611 40.3974 49.8964 40.4212 50.1325C40.4538 50.4553 40.461 50.7805 40.4793 51.1049ZM34.5527 55.0382C35.8431 55.0644 36.7551 54.461 37.3252 53.297C37.6058 52.7229 37.741 52.1115 37.7784 51.4834C37.846 50.3321 37.6392 49.2436 36.9372 48.2895C36.5651 47.7831 36.0856 47.4149 35.4782 47.2679C34.082 46.9299 32.6453 47.2281 31.8622 48.8C31.1005 50.3281 31.1148 51.8937 31.8629 53.425C32.3972 54.5166 33.3108 55.0501 34.5527 55.0382Z" fill="black"/>
<path d="M94.7872 51.1001C94.7578 52.6036 94.373 53.9759 93.4611 55.1797C92.2565 56.7699 90.6274 57.4711 88.6619 57.4298C87.8112 57.4115 86.9827 57.2549 86.2147 56.8613C84.6626 56.0654 83.6672 54.802 83.1838 53.1459C82.7608 51.6956 82.7719 50.2271 83.2593 48.7952C83.8811 46.9696 85.0602 45.6085 86.9342 45.0455C90.9168 43.8489 93.8403 46.3574 94.5606 49.4312C94.6879 49.9759 94.7141 50.5436 94.7872 51.1001ZM85.5961 51.0818C85.5961 51.8793 85.7424 52.6211 86.0262 53.227C86.5971 54.4474 87.5369 55.0684 88.9044 55.0413C90.0716 55.0183 90.9255 54.511 91.4924 53.4949C91.8375 52.8763 92.0005 52.2069 92.0466 51.512C92.1229 50.3599 91.917 49.2722 91.2253 48.3125C90.8579 47.8037 90.3841 47.4316 89.7766 47.2765C88.4305 46.9315 86.9755 47.1978 86.1391 48.7697C85.7551 49.4925 85.5945 50.2684 85.5961 51.0818Z" fill="black"/>
<path d="M53.4255 47.3577C53.109 47.3529 52.8737 47.3481 52.6383 47.3458C52.2265 47.3418 51.813 47.3625 51.4028 47.3314C50.7937 47.2861 50.4073 46.8274 50.3962 46.1841C50.3859 45.5568 50.7794 45.0655 51.3622 44.9899C51.5117 44.9708 51.6651 44.9724 51.817 44.9724C53.7681 44.9716 55.7201 44.9716 57.6712 44.9724C57.8008 44.9724 57.932 44.9716 58.0608 44.9859C58.677 45.0543 59.0777 45.5512 59.0578 46.2136C59.038 46.856 58.6492 47.2845 58.0258 47.3354C57.8104 47.3529 57.5925 47.3442 57.3754 47.3442C56.9652 47.345 56.5549 47.3442 56.1765 47.3442C55.9761 47.5342 56.0357 47.7409 56.0349 47.9262C56.0302 49.5958 56.0318 51.2655 56.0318 52.9352C56.0318 53.8678 56.0325 54.7997 56.0302 55.7323C56.0294 55.9056 56.0333 56.0813 56.0047 56.2507C55.891 56.9361 55.3639 57.359 54.6761 57.3312C53.9788 57.3026 53.5018 56.8486 53.4453 56.1481C53.4294 55.9541 53.4366 55.7577 53.4366 55.5629C53.4358 53.091 53.4366 50.6191 53.4358 48.1472C53.4374 47.9142 53.4302 47.6781 53.4255 47.3577Z" fill="black"/>
<path d="M69.4558 51.05C69.4558 49.5537 69.4558 48.0573 69.4558 46.561C69.4558 46.3877 69.4494 46.2127 69.4661 46.041C69.5361 45.3063 70.0314 44.8627 70.7661 44.8667C71.4952 44.8714 71.9778 45.3222 72.0438 46.0656C72.0549 46.1952 72.0525 46.3256 72.0525 46.456C72.0533 49.5577 72.0533 52.6585 72.0517 55.7601C72.0517 55.9334 72.0549 56.1091 72.0271 56.2793C71.9197 56.9257 71.4069 57.3415 70.7422 57.3352C70.0728 57.3288 69.5758 56.9106 69.4796 56.2554C69.4518 56.0638 69.4582 55.8659 69.4582 55.6711C69.4558 54.1302 69.4566 52.5901 69.4558 51.05Z" fill="black"/>
<path d="M80.9509 27.4019C80.9024 25.9405 80.7314 24.4974 80.469 23.0679C79.6151 18.415 78.1386 13.9625 76.0961 9.69772C75.4584 8.36675 74.7556 7.07076 73.8985 5.86541C73.6098 5.45992 73.3069 5.05999 72.9714 4.69266C72.6955 4.39133 72.3838 4.11145 72.0507 3.87531C71.3407 3.37203 70.5607 3.3275 69.7608 3.64156C69.2734 3.83317 68.8354 4.11543 68.4323 4.44937C67.7604 5.00434 67.1538 5.62291 66.6425 6.32895C63.0169 11.3364 59.5337 16.4392 56.3462 21.7401C55.0939 23.8232 53.747 25.8435 52.2221 27.7398C51.0501 29.1972 49.7859 30.5647 48.3079 31.7215C47.1216 32.6502 45.8471 33.4191 44.3961 33.8667C43.1335 34.2555 41.8518 34.3827 40.5407 34.1863C39.3823 34.013 38.4751 33.4469 37.8223 32.4721C37.4431 31.906 37.2037 31.2803 37.0399 30.6251C36.6949 29.2449 36.6313 27.8415 36.7203 26.4271C36.9676 22.4795 37.9376 18.6846 39.1851 14.954C40.1694 12.009 41.3565 9.14831 42.8934 6.44185C43.5048 5.3653 44.1806 4.3317 44.9669 3.37283C45.3947 2.85046 45.8646 2.37181 46.4164 1.97904C48.024 0.832529 49.7279 0.684642 51.52 1.49483C52.3183 1.8558 53.014 2.37102 53.6604 2.9562C54.4022 3.62804 55.0574 4.3802 55.6553 5.18164C56.6308 6.48797 57.4752 7.87538 58.2083 9.33118C58.2862 9.48622 58.3641 9.64206 58.4261 9.80346C58.6766 10.4562 58.4237 11.1241 57.829 11.3968C57.2176 11.6775 56.5744 11.458 56.219 10.8387C56.1108 10.651 56.0258 10.4507 55.9256 10.2583C55.0351 8.53849 54.0261 6.89664 52.7031 5.46946C52.3358 5.07351 51.9374 4.69982 51.5137 4.36509C51.1773 4.09874 50.7981 3.87134 50.4077 3.69086C49.5045 3.27264 48.6211 3.35374 47.8436 3.98265C47.4253 4.32056 47.0477 4.71969 46.7018 5.13314C46.0737 5.8829 45.5625 6.71615 45.079 7.56451C43.7433 9.90762 42.6882 12.3771 41.7858 14.9135C40.92 17.3464 40.2076 19.8231 39.717 22.3602C39.3672 24.1722 39.1175 25.9961 39.1453 27.8487C39.1565 28.5667 39.2201 29.2806 39.4037 29.9739C39.5023 30.3468 39.659 30.711 39.8394 31.0537C40.0517 31.4584 40.4079 31.6746 40.8746 31.7518C41.8621 31.9155 42.8178 31.8066 43.7592 31.4981C44.994 31.0934 46.0634 30.4009 47.0572 29.582C48.3699 28.5007 49.4965 27.2404 50.546 25.9095C51.8778 24.2215 53.0704 22.4366 54.1756 20.5943C56.9655 15.9423 59.9893 11.4437 63.1275 7.02146C63.6546 6.27885 64.1793 5.53386 64.7248 4.80477C65.5358 3.72027 66.4811 2.77094 67.6141 2.01879C68.2327 1.60774 68.8966 1.30083 69.6233 1.1275C70.8676 0.830142 72.0332 1.02812 73.1336 1.65624C73.741 2.00289 74.2698 2.44973 74.7373 2.96972C75.6699 4.0073 76.4292 5.16812 77.1209 6.37347C78.4416 8.67445 79.4831 11.1026 80.3935 13.5897C81.4231 16.4035 82.2484 19.2761 82.805 22.2211C83.1644 24.1197 83.4077 26.0335 83.3639 27.9727C83.3425 28.9085 83.2288 29.8316 82.9894 30.7372C82.8392 31.3057 82.6309 31.8519 82.316 32.3513C81.6386 33.427 80.6742 34.0345 79.406 34.2038C77.6481 34.4384 75.9975 34.0996 74.4176 33.3435C72.9944 32.6629 71.766 31.7041 70.6291 30.6219C68.9244 29 67.4511 27.1776 66.1186 25.248C64.6397 23.1076 63.2252 20.9227 61.7846 18.7561C61.5564 18.4134 61.3298 18.0692 61.1135 17.7185C60.9243 17.4116 60.8559 17.084 60.9672 16.7239C61.1079 16.2667 61.4093 15.9805 61.8649 15.8731C62.3228 15.7658 62.7299 15.893 63.0392 16.2524C63.2078 16.4488 63.3453 16.6722 63.4884 16.8893C64.5594 18.5208 65.6216 20.1578 66.6982 21.7854C67.8598 23.5409 69.0858 25.2496 70.451 26.854C71.4226 27.9966 72.4586 29.0747 73.6528 29.9899C74.6061 30.7205 75.6294 31.3224 76.8037 31.6301C77.5884 31.8352 78.3796 31.8893 79.1874 31.7565C79.6803 31.6746 80.0198 31.4234 80.2599 31.0028C80.5438 30.5051 80.7076 29.966 80.7735 29.4031C80.8491 28.7408 80.892 28.0705 80.9509 27.4019Z" fill="black"/>
<path d="M11.0843 52.8311C11.1773 52.5504 11.2425 52.3683 11.2973 52.1831C11.8563 50.3146 12.4128 48.4462 12.9726 46.5777C13.041 46.3495 13.1022 46.1158 13.2024 45.9019C13.786 44.6632 15.4493 44.4978 16.2611 45.587C16.4646 45.8606 16.5306 46.1754 16.587 46.495C16.6817 47.0285 16.7667 47.5636 16.855 48.0979C17.2684 50.5993 17.6827 53.1014 18.0945 55.6035C18.1223 55.7737 18.1541 55.9478 18.1486 56.1187C18.1263 56.7882 17.6827 57.2811 17.0172 57.3225C16.106 57.3781 15.7124 56.9822 15.5828 56.2436C15.4779 55.6457 15.4008 55.0438 15.3141 54.4427C15.0851 52.8549 14.8601 51.2671 14.6279 49.6801C14.6144 49.5863 14.5532 49.4989 14.4753 49.3168C14.3465 49.7437 14.2439 50.0713 14.1493 50.4021C13.619 52.2562 13.0903 54.1103 12.5607 55.9653C12.5432 56.0281 12.5154 56.0877 12.5011 56.1505C12.2904 57.0522 11.7561 57.3114 11.0874 57.332C10.3202 57.3551 9.8813 56.9854 9.62846 56.1211C9.34859 55.1646 9.08144 54.2042 8.80634 53.2461C8.46605 52.059 8.12496 50.872 7.78148 49.6857C7.75445 49.5919 7.77274 49.4599 7.57317 49.4384C7.54534 49.5943 7.51672 49.7541 7.48889 49.9139C7.45947 50.0848 7.42767 50.255 7.40223 50.4267C7.13508 52.2713 6.86952 54.1167 6.60237 55.9613C6.58408 56.0901 6.57137 56.2205 6.53956 56.3453C6.31853 57.2088 5.37158 57.6055 4.5924 57.1611C4.24892 56.9647 4.04856 56.6618 4.0104 56.2722C3.98973 56.0591 4.00086 55.8373 4.03505 55.6258C4.2847 54.0857 4.54311 52.5464 4.79992 51.0079C5.05355 49.4901 5.31752 47.9747 5.55684 46.4545C5.6594 45.8041 5.96472 45.3151 6.55467 45.0265C7.44278 44.5924 8.54317 45.013 8.95503 45.9385C9.05123 46.1547 9.11404 46.3877 9.18162 46.6159C9.74693 48.505 10.3083 50.3949 10.8744 52.284C10.9213 52.4399 10.9904 52.5894 11.0843 52.8311Z" fill="black"/>
<path d="M113.411 52.4844C113.411 52.2681 113.411 52.0519 113.411 51.8356C113.411 50.0793 113.41 48.3229 113.412 46.5666C113.412 46.3289 113.408 46.0864 113.446 45.8534C113.54 45.2682 114.017 44.8858 114.642 44.8683C115.288 44.85 115.776 45.1744 115.922 45.7453C115.975 45.9528 115.996 46.1738 115.996 46.3885C116.001 49.5331 116 52.6768 115.998 55.8214C115.998 55.9724 115.978 56.1235 115.963 56.2746C115.879 57.0895 114.959 57.5753 114.188 57.1937C113.867 57.0347 113.63 56.7946 113.418 56.5131C112.387 55.1448 111.349 53.7828 110.315 52.4176C109.751 51.675 109.19 50.9308 108.624 50.1898C108.508 50.0371 108.38 49.8932 108.264 49.7525C108.059 49.8241 108.123 49.9767 108.123 50.0904C108.118 51.8468 108.119 53.6031 108.119 55.3594C108.119 55.6194 108.128 55.881 108.111 56.1402C108.065 56.8439 107.596 57.2986 106.895 57.3336C106.233 57.367 105.711 56.9766 105.575 56.3271C105.535 56.1386 105.529 55.9398 105.529 55.7458C105.527 52.645 105.525 49.5442 105.531 46.4434C105.531 46.2072 105.55 45.9631 105.613 45.7381C105.807 45.044 106.533 44.6942 107.212 44.9446C107.593 45.0854 107.865 45.3493 108.104 45.6713C109.112 47.0293 110.13 48.3802 111.144 49.7334C111.781 50.5834 112.418 51.4341 113.058 52.2825C113.13 52.3787 113.221 52.4606 113.303 52.5496C113.338 52.5266 113.374 52.5051 113.411 52.4844Z" fill="black"/>
<path d="M40.4793 51.1049C40.4864 52.6267 40.0913 54.0157 39.1507 55.2306C37.9112 56.8311 36.2518 57.4966 34.2625 57.4258C30.7602 57.301 28.9251 54.4133 28.6898 52.0678C28.5777 50.9507 28.6206 49.8551 28.9879 48.796C29.628 46.9498 30.819 45.5791 32.7256 45.0273C36.7225 43.8705 39.5784 46.4163 40.2964 49.4297C40.3513 49.6611 40.3974 49.8964 40.4212 50.1325C40.4538 50.4553 40.461 50.7805 40.4793 51.1049ZM34.5527 55.0382C35.8431 55.0644 36.7551 54.461 37.3252 53.297C37.6058 52.7229 37.741 52.1115 37.7784 51.4834C37.846 50.3321 37.6392 49.2436 36.9372 48.2895C36.5651 47.7831 36.0856 47.4149 35.4782 47.2679C34.082 46.9299 32.6453 47.2281 31.8622 48.8C31.1005 50.3281 31.1148 51.8937 31.8629 53.425C32.3972 54.5166 33.3108 55.0501 34.5527 55.0382Z" fill="black"/>
<path d="M94.7872 51.1001C94.7578 52.6036 94.373 53.9759 93.4611 55.1797C92.2565 56.7699 90.6274 57.4711 88.6619 57.4298C87.8112 57.4115 86.9827 57.2549 86.2147 56.8613C84.6626 56.0654 83.6672 54.802 83.1838 53.1459C82.7608 51.6956 82.7719 50.2271 83.2593 48.7952C83.8811 46.9696 85.0602 45.6085 86.9342 45.0455C90.9168 43.8489 93.8403 46.3574 94.5606 49.4312C94.6879 49.9759 94.7141 50.5436 94.7872 51.1001ZM85.5961 51.0818C85.5961 51.8793 85.7424 52.6211 86.0262 53.227C86.5971 54.4474 87.5369 55.0684 88.9044 55.0413C90.0716 55.0183 90.9255 54.511 91.4924 53.4949C91.8375 52.8763 92.0005 52.2069 92.0466 51.512C92.1229 50.3599 91.917 49.2722 91.2253 48.3125C90.8579 47.8037 90.3841 47.4316 89.7766 47.2765C88.4305 46.9315 86.9755 47.1978 86.1391 48.7697C85.7551 49.4925 85.5945 50.2684 85.5961 51.0818Z" fill="black"/>
<path d="M53.4255 47.3577C53.109 47.3529 52.8737 47.3481 52.6383 47.3458C52.2265 47.3418 51.813 47.3625 51.4028 47.3314C50.7937 47.2861 50.4073 46.8274 50.3962 46.1841C50.3859 45.5568 50.7794 45.0655 51.3622 44.9899C51.5117 44.9708 51.6651 44.9724 51.817 44.9724C53.7681 44.9716 55.7201 44.9716 57.6712 44.9724C57.8008 44.9724 57.932 44.9716 58.0608 44.9859C58.677 45.0543 59.0777 45.5512 59.0578 46.2136C59.038 46.856 58.6492 47.2845 58.0258 47.3354C57.8104 47.3529 57.5925 47.3442 57.3754 47.3442C56.9652 47.345 56.5549 47.3442 56.1765 47.3442C55.9761 47.5342 56.0357 47.7409 56.0349 47.9262C56.0302 49.5958 56.0318 51.2655 56.0318 52.9352C56.0318 53.8678 56.0325 54.7997 56.0302 55.7323C56.0294 55.9056 56.0333 56.0813 56.0047 56.2507C55.891 56.9361 55.3639 57.359 54.6761 57.3312C53.9788 57.3026 53.5018 56.8486 53.4453 56.1481C53.4294 55.9541 53.4366 55.7577 53.4366 55.5629C53.4358 53.091 53.4366 50.6191 53.4358 48.1472C53.4374 47.9142 53.4302 47.6781 53.4255 47.3577Z" fill="black"/>
<path d="M69.4558 51.05C69.4558 49.5537 69.4558 48.0573 69.4558 46.561C69.4558 46.3877 69.4494 46.2127 69.4661 46.041C69.5361 45.3063 70.0314 44.8627 70.7661 44.8667C71.4952 44.8714 71.9778 45.3222 72.0438 46.0656C72.0549 46.1952 72.0525 46.3256 72.0525 46.456C72.0533 49.5577 72.0533 52.6585 72.0517 55.7601C72.0517 55.9334 72.0549 56.1091 72.0271 56.2793C71.9197 56.9257 71.4069 57.3415 70.7422 57.3352C70.0728 57.3288 69.5758 56.9106 69.4796 56.2554C69.4518 56.0638 69.4582 55.8659 69.4582 55.6711C69.4558 54.1302 69.4566 52.5901 69.4558 51.05Z" fill="black"/>
</g>
<defs>
<filter id="filter0_d" x="0" y="0.984009" width="120" height="64.4475" filterUnits="userSpaceOnUse" color-interpolation-filters="sRGB">
<feFlood flood-opacity="0" result="BackgroundImageFix"/>
<feColorMatrix in="SourceAlpha" type="matrix" values="0 0 0 0 0 0 0 0 0 0 0 0 0 0 0 0 0 0 127 0"/>
<feOffset dy="4"/>
<feGaussianBlur stdDeviation="2"/>
<feColorMatrix type="matrix" values="0 0 0 0 0 0 0 0 0 0 0 0 0 0 0 0 0 0 0.1 0"/>
<feBlend mode="normal" in2="BackgroundImageFix" result="effect1_dropShadow"/>
<feBlend mode="normal" in="SourceGraphic" in2="effect1_dropShadow" result="shape"/>
</filter>
</defs>
</svg>
