<svg width="112" height="58" viewBox="0 0 112 58" fill="none" xmlns="http://www.w3.org/2000/svg">
<path d="M76.9509 27.4019C76.9024 25.9405 76.7314 24.4974 76.469 23.0679C75.6151 18.415 74.1386 13.9625 72.0961 9.69772C71.4584 8.36675 70.7556 7.07076 69.8985 5.86541C69.6098 5.45992 69.3069 5.05999 68.9714 4.69266C68.6955 4.39133 68.3838 4.11145 68.0507 3.87531C67.3407 3.37203 66.5607 3.3275 65.7608 3.64156C65.2734 3.83317 64.8354 4.11543 64.4323 4.44937C63.7604 5.00434 63.1538 5.62291 62.6425 6.32895C59.0169 11.3364 55.5337 16.4392 52.3462 21.7401C51.0939 23.8232 49.747 25.8435 48.2221 27.7398C47.0501 29.1972 45.7859 30.5647 44.3079 31.7215C43.1216 32.6502 41.8471 33.4191 40.3961 33.8667C39.1335 34.2555 37.8518 34.3827 36.5407 34.1863C35.3823 34.013 34.4751 33.4469 33.8223 32.4721C33.4431 31.906 33.2037 31.2803 33.0399 30.6251C32.6949 29.2449 32.6313 27.8415 32.7203 26.4271C32.9676 22.4795 33.9376 18.6846 35.1851 14.954C36.1694 12.009 37.3565 9.14831 38.8934 6.44185C39.5048 5.3653 40.1806 4.3317 40.9669 3.37283C41.3947 2.85046 41.8646 2.37181 42.4164 1.97904C44.024 0.832529 45.7279 0.684642 47.52 1.49483C48.3183 1.8558 49.014 2.37102 49.6604 2.9562C50.4022 3.62804 51.0574 4.3802 51.6553 5.18164C52.6308 6.48797 53.4752 7.87538 54.2083 9.33118C54.2862 9.48622 54.3641 9.64206 54.4261 9.80346C54.6766 10.4562 54.4237 11.1241 53.829 11.3968C53.2176 11.6775 52.5744 11.458 52.219 10.8387C52.1108 10.651 52.0258 10.4507 51.9256 10.2583C51.0351 8.53849 50.0261 6.89664 48.7031 5.46946C48.3358 5.07351 47.9374 4.69982 47.5137 4.36509C47.1773 4.09874 46.7981 3.87134 46.4077 3.69086C45.5045 3.27264 44.6211 3.35374 43.8436 3.98265C43.4253 4.32056 43.0477 4.71969 42.7018 5.13314C42.0737 5.8829 41.5625 6.71615 41.079 7.56451C39.7433 9.90762 38.6882 12.3771 37.7858 14.9135C36.92 17.3464 36.2076 19.8231 35.717 22.3602C35.3672 24.1722 35.1175 25.9961 35.1453 27.8487C35.1565 28.5667 35.2201 29.2806 35.4037 29.9739C35.5023 30.3468 35.659 30.711 35.8394 31.0537C36.0517 31.4584 36.4079 31.6746 36.8746 31.7518C37.8621 31.9155 38.8178 31.8066 39.7592 31.4981C40.994 31.0934 42.0634 30.4009 43.0572 29.582C44.3699 28.5007 45.4965 27.2404 46.546 25.9095C47.8778 24.2215 49.0704 22.4366 50.1756 20.5943C52.9655 15.9423 55.9893 11.4437 59.1275 7.02146C59.6546 6.27885 60.1793 5.53386 60.7248 4.80477C61.5358 3.72027 62.4811 2.77094 63.6141 2.01879C64.2327 1.60774 64.8966 1.30083 65.6233 1.1275C66.8676 0.830142 68.0332 1.02812 69.1336 1.65624C69.741 2.00289 70.2698 2.44973 70.7373 2.96972C71.6699 4.0073 72.4292 5.16812 73.1209 6.37347C74.4416 8.67445 75.4831 11.1026 76.3935 13.5897C77.4231 16.4035 78.2484 19.2761 78.805 22.2211C79.1644 24.1197 79.4077 26.0335 79.3639 27.9727C79.3425 28.9085 79.2288 29.8316 78.9894 30.7372C78.8392 31.3057 78.6309 31.8519 78.316 32.3513C77.6386 33.427 76.6742 34.0345 75.406 34.2038C73.6481 34.4384 71.9975 34.0996 70.4176 33.3435C68.9944 32.6629 67.766 31.7041 66.6291 30.6219C64.9244 29 63.4511 27.1776 62.1186 25.248C60.6397 23.1076 59.2252 20.9227 57.7846 18.7561C57.5564 18.4134 57.3298 18.0692 57.1135 17.7185C56.9243 17.4116 56.8559 17.084 56.9672 16.7239C57.1079 16.2667 57.4093 15.9805 57.8649 15.8731C58.3228 15.7658 58.7299 15.893 59.0392 16.2524C59.2078 16.4488 59.3453 16.6722 59.4884 16.8893C60.5594 18.5208 61.6216 20.1578 62.6982 21.7854C63.8598 23.5409 65.0858 25.2496 66.451 26.854C67.4226 27.9966 68.4586 29.0747 69.6528 29.9899C70.6061 30.7205 71.6294 31.3224 72.8037 31.6301C73.5884 31.8352 74.3796 31.8893 75.1874 31.7565C75.6803 31.6746 76.0198 31.4234 76.2599 31.0028C76.5438 30.5051 76.7076 29.966 76.7735 29.4031C76.8491 28.7408 76.892 28.0705 76.9509 27.4019Z" fill="black"/>
<path d="M7.08426 52.8311C7.17729 52.5504 7.24248 52.3683 7.29734 52.1831C7.85629 50.3146 8.41285 48.4462 8.97259 46.5777C9.04096 46.3495 9.10218 46.1158 9.20236 45.9019C9.78596 44.6632 11.4493 44.4978 12.2611 45.587C12.4646 45.8606 12.5306 46.1754 12.587 46.495C12.6817 47.0285 12.7667 47.5636 12.855 48.0979C13.2684 50.5993 13.6827 53.1014 14.0945 55.6035C14.1223 55.7737 14.1541 55.9478 14.1486 56.1187C14.1263 56.7882 13.6827 57.2811 13.0172 57.3225C12.106 57.3781 11.7124 56.9822 11.5828 56.2436C11.4779 55.6457 11.4008 55.0438 11.3141 54.4427C11.0851 52.8549 10.8601 51.2671 10.6279 49.6801C10.6144 49.5863 10.5532 49.4989 10.4753 49.3168C10.3465 49.7437 10.2439 50.0713 10.1493 50.4021C9.61899 52.2562 9.09026 54.1103 8.56073 55.9653C8.54324 56.0281 8.51541 56.0877 8.5011 56.1505C8.2904 57.0522 7.75611 57.3114 7.08744 57.332C6.32018 57.3551 5.8813 56.9854 5.62846 56.1211C5.34859 55.1646 5.08144 54.2042 4.80634 53.2461C4.46605 52.059 4.12496 50.872 3.78148 49.6857C3.75445 49.5919 3.77274 49.4599 3.57317 49.4384C3.54534 49.5943 3.51672 49.7541 3.48889 49.9139C3.45947 50.0848 3.42767 50.255 3.40223 50.4267C3.13508 52.2713 2.86952 54.1167 2.60237 55.9613C2.58408 56.0901 2.57137 56.2205 2.53956 56.3453C2.31853 57.2088 1.37158 57.6055 0.5924 57.1611C0.248923 56.9647 0.0485641 56.6618 0.0104001 56.2722C-0.0102721 56.0591 0.000858907 55.8373 0.0350475 55.6258C0.284704 54.0857 0.543106 52.5464 0.799918 51.0079C1.05355 49.4901 1.31752 47.9747 1.55684 46.4545C1.6594 45.8041 1.96472 45.3151 2.55467 45.0265C3.44278 44.5924 4.54317 45.013 4.95503 45.9385C5.05123 46.1547 5.11404 46.3877 5.18162 46.6159C5.74693 48.505 6.30826 50.3949 6.87436 52.284C6.92127 52.4399 6.99044 52.5894 7.08426 52.8311Z" fill="black"/>
<path d="M109.411 52.4844C109.411 52.2681 109.411 52.0519 109.411 51.8356C109.411 50.0793 109.41 48.3229 109.412 46.5666C109.412 46.3289 109.408 46.0864 109.446 45.8534C109.54 45.2682 110.017 44.8858 110.642 44.8683C111.288 44.85 111.776 45.1744 111.922 45.7453C111.975 45.9528 111.996 46.1738 111.996 46.3885C112.001 49.5331 112 52.6768 111.998 55.8214C111.998 55.9724 111.978 56.1235 111.963 56.2746C111.879 57.0895 110.959 57.5753 110.188 57.1937C109.867 57.0347 109.63 56.7946 109.418 56.5131C108.387 55.1448 107.349 53.7828 106.315 52.4176C105.751 51.675 105.19 50.9308 104.624 50.1898C104.508 50.0371 104.38 49.8932 104.264 49.7525C104.059 49.8241 104.123 49.9767 104.123 50.0904C104.118 51.8468 104.119 53.6031 104.119 55.3594C104.119 55.6194 104.128 55.881 104.111 56.1402C104.065 56.8439 103.596 57.2986 102.895 57.3336C102.233 57.367 101.711 56.9766 101.575 56.3271C101.535 56.1386 101.529 55.9398 101.529 55.7458C101.527 52.645 101.525 49.5442 101.531 46.4434C101.531 46.2072 101.55 45.9631 101.613 45.7381C101.807 45.044 102.533 44.6942 103.212 44.9446C103.593 45.0854 103.865 45.3493 104.104 45.6713C105.112 47.0293 106.13 48.3802 107.144 49.7334C107.781 50.5834 108.418 51.4341 109.058 52.2825C109.13 52.3787 109.221 52.4606 109.303 52.5496C109.338 52.5266 109.374 52.5051 109.411 52.4844Z" fill="black"/>
<path d="M36.4793 51.1049C36.4864 52.6267 36.0913 54.0157 35.1507 55.2306C33.9112 56.8311 32.2518 57.4966 30.2625 57.4258C26.7602 57.301 24.9251 54.4133 24.6898 52.0678C24.5777 50.9507 24.6206 49.8551 24.9879 48.796C25.628 46.9498 26.819 45.5791 28.7256 45.0273C32.7225 43.8705 35.5784 46.4163 36.2964 49.4297C36.3513 49.6611 36.3974 49.8964 36.4212 50.1325C36.4538 50.4553 36.461 50.7805 36.4793 51.1049ZM30.5527 55.0382C31.8431 55.0644 32.7551 54.461 33.3252 53.297C33.6058 52.7229 33.741 52.1115 33.7784 51.4834C33.846 50.3321 33.6392 49.2436 32.9372 48.2895C32.5651 47.7831 32.0856 47.4149 31.4782 47.2679C30.082 46.9299 28.6453 47.2281 27.8622 48.8C27.1005 50.3281 27.1148 51.8937 27.8629 53.425C28.3972 54.5166 29.3108 55.0501 30.5527 55.0382Z" fill="black"/>
<path d="M90.7872 51.1001C90.7578 52.6036 90.373 53.9759 89.4611 55.1797C88.2565 56.7699 86.6274 57.4711 84.6619 57.4298C83.8112 57.4115 82.9827 57.2549 82.2147 56.8613C80.6626 56.0654 79.6672 54.802 79.1838 53.1459C78.7608 51.6956 78.7719 50.2271 79.2593 48.7952C79.8811 46.9696 81.0602 45.6085 82.9342 45.0455C86.9168 43.8489 89.8403 46.3574 90.5606 49.4312C90.6879 49.9759 90.7141 50.5436 90.7872 51.1001ZM81.5961 51.0818C81.5961 51.8793 81.7424 52.6211 82.0262 53.227C82.5971 54.4474 83.5369 55.0684 84.9044 55.0413C86.0716 55.0183 86.9255 54.511 87.4924 53.4949C87.8375 52.8763 88.0005 52.2069 88.0466 51.512C88.1229 50.3599 87.917 49.2722 87.2253 48.3125C86.8579 47.8037 86.3841 47.4316 85.7766 47.2765C84.4305 46.9315 82.9755 47.1978 82.1391 48.7697C81.7551 49.4925 81.5945 50.2684 81.5961 51.0818Z" fill="black"/>
<path d="M49.4255 47.3577C49.109 47.3529 48.8737 47.3481 48.6383 47.3458C48.2265 47.3418 47.813 47.3625 47.4028 47.3314C46.7937 47.2861 46.4073 46.8274 46.3962 46.1841C46.3859 45.5568 46.7794 45.0655 47.3622 44.9899C47.5117 44.9708 47.6651 44.9724 47.817 44.9724C49.7681 44.9716 51.7201 44.9716 53.6712 44.9724C53.8008 44.9724 53.932 44.9716 54.0608 44.9859C54.677 45.0543 55.0777 45.5512 55.0578 46.2136C55.038 46.856 54.6492 47.2845 54.0258 47.3354C53.8104 47.3529 53.5925 47.3442 53.3754 47.3442C52.9652 47.345 52.5549 47.3442 52.1765 47.3442C51.9761 47.5342 52.0357 47.7409 52.0349 47.9262C52.0302 49.5958 52.0318 51.2655 52.0318 52.9352C52.0318 53.8678 52.0325 54.7997 52.0302 55.7323C52.0294 55.9056 52.0333 56.0813 52.0047 56.2507C51.891 56.9361 51.3639 57.359 50.6761 57.3312C49.9788 57.3026 49.5018 56.8486 49.4453 56.1481C49.4294 55.9541 49.4366 55.7577 49.4366 55.5629C49.4358 53.091 49.4366 50.6191 49.4358 48.1472C49.4374 47.9142 49.4302 47.6781 49.4255 47.3577Z" fill="black"/>
<path d="M65.4558 51.05C65.4558 49.5537 65.4558 48.0573 65.4558 46.561C65.4558 46.3877 65.4494 46.2127 65.4661 46.041C65.5361 45.3063 66.0314 44.8627 66.7661 44.8667C67.4952 44.8714 67.9778 45.3222 68.0438 46.0656C68.0549 46.1952 68.0525 46.3256 68.0525 46.456C68.0533 49.5577 68.0533 52.6585 68.0517 55.7601C68.0517 55.9334 68.0549 56.1091 68.0271 56.2793C67.9197 56.9257 67.4069 57.3415 66.7422 57.3352C66.0728 57.3288 65.5758 56.9106 65.4796 56.2554C65.4518 56.0638 65.4582 55.8659 65.4582 55.6711C65.4558 54.1302 65.4566 52.5901 65.4558 51.05Z" fill="black"/>
</svg>
