<svg width="18" height="18" viewBox="0 0 18 18" fill="none" xmlns="http://www.w3.org/2000/svg">
<path d="M14.5552 5.22949C14.7493 5.22949 14.9067 5.0721 14.9067 4.87793V1.05469C14.9067 0.473133 14.4336 0 13.8521 0H1.05518C0.473621 0 0.000488281 0.473133 0.000488281 1.05469V16.9453C0.000488281 17.5269 0.473621 18 1.05518 18H13.8521C14.4336 18 14.9067 17.5269 14.9067 16.9453V14.3553C14.9067 14.1611 14.7493 14.0037 14.5552 14.0037C14.361 14.0037 14.2036 14.1611 14.2036 14.3553V16.9453C14.2036 17.1392 14.0459 17.2969 13.8521 17.2969H1.05518C0.861324 17.2969 0.703613 17.1392 0.703613 16.9453V1.05469C0.703613 0.860836 0.861324 0.703125 1.05518 0.703125H13.8521C14.0459 0.703125 14.2036 0.860836 14.2036 1.05469V4.87793C14.2036 5.0721 14.361 5.22949 14.5552 5.22949Z" fill="black"/>
<path d="M7.45361 1.89844C5.67017 1.89844 4.21924 3.34937 4.21924 5.13281C4.21924 6.05802 4.60982 6.89361 5.23462 7.48368C5.24633 7.49619 5.25877 7.50804 5.27238 7.51883C5.84792 8.04544 6.61387 8.36715 7.45357 8.36715C8.29328 8.36715 9.05922 8.0454 9.63477 7.51883C9.64837 7.50804 9.66082 7.49616 9.67252 7.48368C10.2974 6.89361 10.688 6.05802 10.688 5.13281C10.688 3.34937 9.23704 1.89844 7.45361 1.89844ZM7.45361 7.66406C6.87954 7.66406 6.34974 7.47169 5.92463 7.14839C6.23362 6.60048 6.81021 6.25781 7.45361 6.25781C8.097 6.25781 8.6736 6.60048 8.98258 7.14839C8.55744 7.47169 8.02767 7.66406 7.45361 7.66406ZM6.89111 4.99219V4.76367C6.89111 4.45352 7.14346 4.20117 7.45361 4.20117C7.76375 4.20117 8.0161 4.45352 8.0161 4.76367V4.99219C8.0161 5.30234 7.76375 5.55469 7.45361 5.55469C7.14346 5.55469 6.89111 5.30234 6.89111 4.99219ZM9.49055 6.63339C9.23128 6.24885 8.87195 5.94977 8.45475 5.76513C8.62033 5.55114 8.71923 5.28307 8.71923 4.99219V4.76367C8.71923 4.06579 8.15149 3.49805 7.45361 3.49805C6.75572 3.49805 6.18798 4.06579 6.18798 4.76367V4.99219C6.18798 5.28307 6.28688 5.55114 6.45246 5.76513C6.03527 5.94977 5.67593 6.24885 5.41666 6.63339C5.10626 6.21316 4.92236 5.69415 4.92236 5.13281C4.92236 3.73707 6.05787 2.60156 7.45361 2.60156C8.84934 2.60156 9.98485 3.73707 9.98485 5.13281C9.98485 5.69415 9.80095 6.21316 9.49055 6.63339Z" fill="black"/>
<path d="M9.35204 15.3984H7.45361C7.25948 15.3984 7.10205 15.5558 7.10205 15.75C7.10205 15.9442 7.25948 16.1016 7.45361 16.1016H9.35204C9.54617 16.1016 9.7036 15.9442 9.7036 15.75C9.7036 15.5558 9.54617 15.3984 9.35204 15.3984Z" fill="black"/>
<path d="M9.35204 13.4297H4.35986C4.16573 13.4297 4.0083 13.5871 4.0083 13.7812C4.0083 13.9754 4.16573 14.1328 4.35986 14.1328H9.35204C9.54617 14.1328 9.7036 13.9754 9.7036 13.7812C9.7036 13.5871 9.54617 13.4297 9.35204 13.4297Z" fill="black"/>
<path d="M9.35204 11.4609H4.35986C4.16573 11.4609 4.0083 11.6183 4.0083 11.8125C4.0083 12.0067 4.16573 12.1641 4.35986 12.1641H9.35204C9.54617 12.1641 9.7036 12.0067 9.7036 11.8125C9.7036 11.6183 9.54617 11.4609 9.35204 11.4609Z" fill="black"/>
<path d="M3.10629 9.5952C3.04094 9.5298 2.95023 9.49219 2.85742 9.49219C2.76493 9.49219 2.67422 9.5298 2.60887 9.5952C2.54348 9.66059 2.50586 9.75129 2.50586 9.84375C2.50586 9.93621 2.54344 10.0269 2.60887 10.0923C2.67461 10.1577 2.76493 10.1953 2.85742 10.1953C2.95023 10.1953 3.04059 10.1577 3.10629 10.0923C3.17168 10.0269 3.20934 9.93621 3.20934 9.84375C3.20934 9.75129 3.17172 9.66059 3.10629 9.5952Z" fill="black"/>
<path d="M3.10629 11.5639C3.04059 11.4986 2.95023 11.4609 2.85742 11.4609C2.76493 11.4609 2.67461 11.4986 2.60887 11.5639C2.54348 11.6293 2.50586 11.72 2.50586 11.8125C2.50586 11.905 2.54344 11.9957 2.60887 12.0611C2.67461 12.1264 2.76493 12.1641 2.85742 12.1641C2.95023 12.1641 3.04059 12.1264 3.10629 12.0611C3.17168 11.9957 3.20934 11.905 3.20934 11.8125C3.20934 11.72 3.17172 11.6293 3.10629 11.5639Z" fill="black"/>
<path d="M3.10629 13.5327C3.04059 13.4673 2.95023 13.4297 2.85742 13.4297C2.76493 13.4297 2.67461 13.4673 2.60887 13.5327C2.54348 13.5981 2.50586 13.6888 2.50586 13.7812C2.50586 13.8737 2.54344 13.9644 2.60887 14.0298C2.67422 14.0952 2.76493 14.1328 2.85742 14.1328C2.95023 14.1328 3.04094 14.0952 3.10629 14.0298C3.17168 13.9644 3.20934 13.8737 3.20934 13.7812C3.20934 13.6888 3.17172 13.5981 3.10629 13.5327Z" fill="black"/>
<path d="M9.35204 9.49219H4.35986C4.16573 9.49219 4.0083 9.64958 4.0083 9.84375C4.0083 10.0379 4.16573 10.1953 4.35986 10.1953H9.35204C9.54617 10.1953 9.7036 10.0379 9.7036 9.84375C9.7036 9.64958 9.54617 9.49219 9.35204 9.49219Z" fill="black"/>
<path d="M17.2616 4.58158C16.92 4.38438 16.5221 4.332 16.1411 4.43406C15.7602 4.53615 15.4417 4.78049 15.2446 5.12203L10.8204 12.7848C10.7962 12.8268 10.7809 12.8734 10.7755 12.9216L10.4641 15.711C10.4486 15.8498 10.5167 15.9846 10.6377 16.0545C10.6923 16.086 10.7529 16.1016 10.8134 16.1016C10.887 16.1016 10.9602 16.0786 11.0219 16.0331L13.2819 14.3687C13.321 14.3399 13.3537 14.3034 13.3779 14.2614L17.802 6.59863C18.2091 5.89354 17.9667 4.98869 17.2616 4.58158ZM11.252 14.9904L11.4146 13.5338L12.4321 14.1213L11.252 14.9904ZM12.9448 13.6053L11.6052 12.8319L15.1554 6.68272L16.495 7.45616L12.9448 13.6053ZM17.1931 6.24703L16.8466 6.84726L15.5069 6.07382L15.8535 5.4736C15.9568 5.29469 16.1235 5.16672 16.3231 5.11324C16.5227 5.05974 16.7311 5.08723 16.91 5.19052C17.0889 5.29381 17.2169 5.46059 17.2703 5.66013C17.3238 5.85968 17.2964 6.06812 17.1931 6.24703Z" fill="black"/>
</svg>
