<svg width="18" height="18" viewBox="0 0 18 18" fill="none" xmlns="http://www.w3.org/2000/svg">
<path d="M4.30801 9.78757C3.86624 9.78757 3.50684 10.1469 3.50684 10.5887C3.50684 11.0304 3.86624 11.3898 4.30801 11.3898C4.74975 11.3898 5.10912 11.0304 5.10912 10.5887C5.10912 10.1469 4.74972 9.78757 4.30801 9.78757ZM4.30801 10.8615C4.15761 10.8615 4.03524 10.7391 4.03524 10.5887C4.03524 10.4384 4.15761 10.316 4.30801 10.316C4.45841 10.316 4.58076 10.4384 4.58076 10.5887C4.58076 10.7391 4.45838 10.8615 4.30801 10.8615Z" fill="black"/>
<path d="M11.5571 14.8821C11.5217 14.7732 11.4203 14.6995 11.3059 14.6995H9.73655L9.25161 13.207C9.21666 13.0994 9.11348 13.0245 9.00035 13.0245C8.88721 13.0245 8.78407 13.0994 8.74909 13.207L8.26414 14.6995H6.69487C6.58044 14.6995 6.47898 14.7732 6.44361 14.8821C6.40825 14.9909 6.44699 15.1102 6.53959 15.1774L7.80915 16.0999L7.3242 17.5924C7.29035 17.6965 7.32593 17.8137 7.41192 17.8815C7.50378 17.9538 7.63611 17.9565 7.73075 17.8877L9.00031 16.9653L10.2699 17.8877C10.3692 17.9599 10.5087 17.9529 10.6005 17.8715C10.6783 17.8025 10.7086 17.6913 10.6764 17.5924L10.1914 16.0999L11.461 15.1775C11.5537 15.1103 11.5924 14.991 11.5571 14.8821ZM9.72569 15.7852C9.63309 15.8524 9.59435 15.9717 9.62971 16.0805L9.9227 16.9823L9.1556 16.425C9.06405 16.3584 8.93657 16.3584 8.84506 16.425L8.07795 16.9823L8.37094 16.0805C8.40631 15.9717 8.36757 15.8524 8.27497 15.7852L7.5079 15.2279H8.45606C8.57049 15.2279 8.67195 15.1542 8.70732 15.0453L9.00031 14.1436L9.2933 15.0453C9.32867 15.1542 9.43013 15.2279 9.54456 15.2279H10.4927L9.72569 15.7852Z" fill="black"/>
<path d="M17.9868 14.8821C17.9514 14.7732 17.85 14.6995 17.7355 14.6995H16.1662L15.6813 13.207C15.6464 13.0994 15.5432 13.0244 15.43 13.0244C15.3169 13.0244 15.2138 13.0994 15.1788 13.207L14.6938 14.6995H13.1246C13.0101 14.6995 12.9087 14.7732 12.8733 14.8821C12.8379 14.9909 12.8767 15.1102 12.9693 15.1774L14.2388 16.0998L13.7539 17.5923C13.72 17.6964 13.7556 17.8137 13.8416 17.8814C13.9335 17.9538 14.0658 17.9564 14.1604 17.8877L15.43 16.9652L16.6996 17.8877C16.7989 17.9598 16.9384 17.9529 17.0302 17.8715C17.108 17.8025 17.1383 17.6913 17.1061 17.5924L16.6212 16.0999L17.8907 15.1774C17.9834 15.1102 18.0222 14.9909 17.9868 14.8821ZM16.1554 15.7852C16.0628 15.8524 16.024 15.9717 16.0594 16.0805L16.3524 16.9823L15.5853 16.425C15.4927 16.3577 15.3673 16.3577 15.2748 16.425L14.5076 16.9823L14.8006 16.0805C14.836 15.9717 14.7973 15.8524 14.7047 15.7852L13.9376 15.2279H14.8858C15.0002 15.2279 15.1017 15.1542 15.137 15.0453L15.43 14.1436L15.723 15.0453C15.7584 15.1542 15.8599 15.2279 15.9743 15.2279H16.9225L16.1554 15.7852Z" fill="black"/>
<path d="M5.12646 14.8821C5.09106 14.7732 4.9896 14.6995 4.87516 14.6995H3.30589L2.82095 13.207C2.78558 13.0982 2.68412 13.0245 2.56969 13.0245C2.45525 13.0245 2.35379 13.0982 2.31842 13.207L1.83348 14.6995H0.26421C0.149776 14.6995 0.0483154 14.7732 0.0129482 14.8821C-0.022419 14.9909 0.0163232 15.1102 0.108925 15.1774L1.37849 16.0999L0.893542 17.5924C0.858175 17.7012 0.896917 17.8205 0.989519 17.8877C1.08208 17.955 1.20749 17.955 1.30009 17.8877L2.56965 16.9653L3.83921 17.8877C3.93853 17.9598 4.07807 17.9529 4.16982 17.8715C4.24762 17.8025 4.27789 17.6913 4.24573 17.5924L3.76078 16.0999L5.03034 15.1775C5.12309 15.1103 5.16183 14.991 5.12646 14.8821ZM3.29503 15.7852C3.20243 15.8524 3.16369 15.9717 3.19905 16.0805L3.49205 16.9823L2.72494 16.425C2.63339 16.3584 2.50591 16.3584 2.41437 16.425L1.64733 16.9823L1.94028 16.0805C1.97565 15.9717 1.93691 15.8524 1.84431 15.7852L1.07723 15.2279H2.0254C2.13983 15.2279 2.24129 15.1542 2.27666 15.0453L2.56965 14.1435L2.86264 15.0453C2.89801 15.1542 2.99947 15.2279 3.11391 15.2279H4.06207L3.29503 15.7852Z" fill="black"/>
<path d="M15.8613 6.64797C16.1342 6.42838 16.3091 6.09169 16.3091 5.71499C16.3091 5.05486 15.772 4.51781 15.112 4.51781H10.8624C10.9945 4.22981 11.147 3.7911 11.2341 3.18124C11.4365 1.76413 11.1306 1.01193 10.8384 0.630447C10.591 0.307572 10.2587 0.112315 9.8774 0.0658381C9.55565 0.0263225 9.26184 0.281873 9.25327 0.6051C9.2038 1.11325 9.02285 2.5073 8.76368 3.02571C8.09786 4.35736 6.51041 5.15129 6.02012 5.37095C5.84856 5.22351 5.62574 5.1341 5.38232 5.1341H3.23448C2.69406 5.1341 2.25439 5.57373 2.25439 6.11419V11.4836C2.25439 12.0241 2.69406 12.4637 3.23448 12.4637H5.38225C5.67141 12.4637 5.93167 12.3378 6.11118 12.1379C6.39 12.314 6.84 12.5101 7.46146 12.5101H14.3655C15.0257 12.5101 15.5627 11.973 15.5627 11.3129C15.5627 11.0103 15.4498 10.7336 15.264 10.5226C15.6615 10.3276 15.9358 9.91866 15.9358 9.4469C15.9358 9.14431 15.823 8.86759 15.6372 8.65655C16.0347 8.46164 16.309 8.05267 16.309 7.58091C16.3091 7.20424 16.1342 6.86755 15.8613 6.64797ZM5.38225 11.9353H3.23448C2.9854 11.9353 2.78276 11.7327 2.78276 11.4836V6.11415C2.78276 5.86507 2.9854 5.66243 3.23448 5.66243H5.38225C5.50839 5.66243 5.62247 5.71453 5.70449 5.7982V11.6897C5.70449 11.7213 5.71022 11.7523 5.72105 11.7814C5.63818 11.8755 5.51721 11.9353 5.38225 11.9353ZM14.002 6.91213H15.1121C15.4808 6.91213 15.7808 7.21219 15.7808 7.58091C15.7808 7.94963 15.4808 8.24969 15.1121 8.24969H14.002C13.8561 8.24969 13.7378 8.36795 13.7378 8.51388C13.7378 8.65982 13.8561 8.77808 14.002 8.77808H14.7388C15.1076 8.77808 15.4076 9.07814 15.4076 9.44686C15.4076 9.81558 15.1076 10.1156 14.7388 10.1156H13.7994C13.6535 10.1156 13.5352 10.2339 13.5352 10.3798C13.5352 10.5258 13.6535 10.644 13.7994 10.644H14.3656C14.7344 10.644 15.0344 10.9441 15.0344 11.3128C15.0344 11.6816 14.7344 11.9816 14.3656 11.9816H7.46153C6.91626 11.9816 6.54659 11.799 6.34588 11.6618C6.35657 11.6039 6.36244 11.5444 6.36244 11.4835V6.11415C6.36244 6.01086 6.34627 5.91134 6.31652 5.81782C6.93556 5.53372 8.52036 4.69374 9.23625 3.262C9.59432 2.5459 9.77284 0.722346 9.78026 0.645072C9.78103 0.636705 9.78145 0.628233 9.78145 0.61983C9.78145 0.61083 9.7849 0.603166 9.79168 0.59719C9.80118 0.588858 9.81032 0.589912 9.81338 0.590299C9.97875 0.610479 10.2181 0.68958 10.419 0.951776C10.6496 1.25285 10.8875 1.87108 10.7111 3.10654C10.5615 4.15374 10.2068 4.61186 10.2046 4.6147C10.0661 4.78395 10.1908 5.04621 10.409 5.04621H15.112C15.4808 5.04621 15.7808 5.34627 15.7808 5.71502C15.7808 6.08381 15.4808 6.3838 15.112 6.3838H14.0019C13.856 6.3838 13.7377 6.50207 13.7377 6.648C13.7377 6.79393 13.856 6.91213 14.002 6.91213Z" fill="black"/>
</svg>
