<svg width="14" height="18" viewBox="0 0 14 18" fill="none" xmlns="http://www.w3.org/2000/svg">
<path d="M1.6449 3.02655V7.49007C0.830141 8.619 0.392511 9.97627 0.394047 11.3684C0.394047 15.025 3.37131 17.9999 7.0279 17.9999C10.6845 17.9999 13.6654 15.0251 13.6654 11.3684C13.6674 9.97642 13.2301 8.61915 12.4158 7.49007V3.02655C12.4158 1.36018 11.0504 0 9.38388 0H4.67683C3.0103 0 1.6449 1.36018 1.6449 3.02655ZM7.03036 17.2134C3.80725 17.2134 1.18501 14.5915 1.18501 11.3681C1.18501 8.14467 3.80725 5.52304 7.03036 5.52304C10.2535 5.52304 12.8757 8.14498 12.8757 11.3684C12.8757 14.5918 10.2535 17.2134 7.03036 17.2134ZM10.1751 5.53686C8.21426 4.47012 5.8463 4.47012 3.88556 5.53686V3.02655C3.88403 2.81665 3.96695 2.61503 4.1159 2.46716C4.26484 2.31928 4.46692 2.23759 4.67683 2.24066H9.38388C9.59379 2.23759 9.79587 2.31928 9.94482 2.46716C10.0936 2.61503 10.1767 2.81665 10.1751 3.02655V5.53686ZM4.67683 0.786198H9.38388C10.6209 0.788808 11.6241 1.78952 11.6296 3.02655V6.58625C11.4217 6.38632 11.1983 6.20328 10.9613 6.03883V3.02655C10.9627 2.60827 10.7967 2.20688 10.5005 1.9116C10.2042 1.61631 9.80216 1.4517 9.38388 1.45447H4.67683C4.25855 1.4517 3.85654 1.61631 3.56018 1.9116C3.26398 2.20688 3.09798 2.60827 3.09937 3.02655V6.03883C2.86243 6.20328 2.63901 6.38632 2.4311 6.58625V3.02655C2.43663 1.78952 3.43964 0.788808 4.67683 0.786198Z" fill="black"/>
</svg>
